# xmcd
#
# Track frame offsets: 
#        150
#        44753
#        91952
#        110833
#        162855
#        204101
#        275297
#
# Disc length: 4206 seconds
#
# Revision: 1
# Processed by: cddbd v1.5.1PL0 Copyright (c) Steve Scherf et al.
# Submitted via: ExactAudioCopy v0.95a5
#
DISCID=5b106c07
DTITLE=Blue Floyd - Blue Floyd. Richmond. VA. 2.7.00 CD2
DYEAR=2000
DGENRE=Rock
TTITLE0=Shine On You Crazy Diamond
TTITLE1=Have A Cigar
TTITLE2=In The Flesh
TTITLE3=Whole Lotta Jam > Gypsy Blues Jam
TTITLE4=Drums
TTITLE5=Bass Jam > Set The Controls For The Heart Of The Sun
TTITLE6=Fearless
EXTD=
EXTT0=
EXTT1=
EXTT2=
EXTT3=
EXTT4=
EXTT5=
EXTT6=
PLAYORDER=
